# xmcd
#
# Track frame offsets:
#	150
#	16467
#	33315
#	47849
#	63973
#	80105
#	92307
#	108173
#	124508
#	140508
#
# Disc length: 2107 seconds
#
# Revision: 0
# Processed by: cddbd v1.5.1PL2 Copyright (c) Steve Scherf et al.
# Submitted via: dBpowerAMP V4.0
#
DISCID=7908390a
DTITLE=Christer Knutsen - Grand Hotel
DYEAR=2006
DGENRE=Country
TTITLE0=Next One's On Me
TTITLE1=Wait For Him
TTITLE2=She Said
TTITLE3=Bicycle Tires
TTITLE4=Could Have Been The One
TTITLE5=Waiting To Be Heard
TTITLE6=Down
TTITLE7=Better Than Last Time
TTITLE8=Right This Time
TTITLE9=Anything But You
EXTD=
EXTT0=
EXTT1=
EXTT2=
EXTT3=
EXTT4=
EXTT5=
EXTT6=
EXTT7=
EXTT8=
EXTT9=
PLAYORDER=
